<svg xmlns="http://www.w3.org/2000/svg" xmlns:xlink="http://www.w3.org/1999/xlink" width="300" height="300" viewBox="35 0 85 90" preserveAspectRatio="xMidYMid meet" version="1.0"><defs><g/><clipPath id="e5b7ff9388"><path d="M 40 0.0898438 L 116.464844 0.0898438 L 116.464844 51 L 40 51 Z M 40 0.0898438 " clip-rule="nonzero"/></clipPath><clipPath id="5a8db20108"><path d="M 39.335938 39 L 115 39 L 115 71 L 39.335938 71 Z M 39.335938 39 " clip-rule="nonzero"/></clipPath><clipPath id="331863060d"><path d="M 79 71 L 92 71 L 92 88.449219 L 79 88.449219 Z M 79 71 " clip-rule="nonzero"/></clipPath><clipPath id="63b15f1ccc"><path d="M 64 71 L 77 71 L 77 88.449219 L 64 88.449219 Z M 64 71 " clip-rule="nonzero"/></clipPath></defs><path fill="#8c52ff" d="M 96.519531 45.230469 C 96.519531 48.015625 94.261719 50.277344 91.472656 50.277344 C 88.683594 50.277344 86.425781 48.019531 86.425781 45.230469 C 86.425781 42.441406 88.683594 40.183594 91.472656 40.183594 C 94.261719 40.183594 96.519531 42.441406 96.519531 45.230469 Z M 96.519531 45.230469 " fill-opacity="1" fill-rule="nonzero"/><path fill="#8c52ff" d="M 64.335938 40.183594 C 67.121094 40.183594 69.382812 42.441406 69.382812 45.230469 C 69.382812 48.015625 67.125 50.277344 64.335938 50.277344 C 61.546875 50.277344 59.289062 48.015625 59.289062 45.230469 C 59.289062 42.441406 61.546875 40.183594 64.335938 40.183594 Z M 64.335938 40.183594 " fill-opacity="1" fill-rule="nonzero"/><g clip-path="url(#e5b7ff9388)"><path fill="#8c52ff" d="M 108.445312 50.605469 L 116.4375 50.605469 C 116.445312 50.429688 116.464844 50.257812 116.464844 50.085938 L 116.464844 40.371094 C 116.464844 29.1875 107.367188 20.085938 96.179688 20.085938 L 79.707031 20.085938 L 79.707031 11.394531 C 82.023438 10.628906 83.707031 8.472656 83.707031 5.902344 C 83.707031 2.695312 81.105469 0.09375 77.898438 0.09375 C 74.691406 0.09375 72.089844 2.695312 72.089844 5.902344 C 72.089844 8.472656 73.773438 10.632812 76.089844 11.394531 L 76.089844 20.09375 L 59.621094 20.09375 C 51.167969 20.09375 43.914062 25.296875 40.871094 32.660156 L 50.074219 32.660156 C 52.328125 29.875 55.769531 28.085938 59.621094 28.085938 L 96.1875 28.085938 C 102.960938 28.085938 108.472656 33.597656 108.472656 40.371094 L 108.472656 50.085938 C 108.472656 50.261719 108.449219 50.433594 108.445312 50.605469 Z M 77.402344 3.402344 C 77.402344 4.308594 76.667969 5.042969 75.761719 5.042969 C 74.851562 5.042969 74.117188 4.308594 74.117188 3.402344 C 74.117188 2.492188 74.851562 1.757812 75.761719 1.757812 C 76.667969 1.757812 77.402344 2.5 77.402344 3.402344 Z M 77.402344 3.402344 " fill-opacity="1" fill-rule="nonzero"/></g><g clip-path="url(#5a8db20108)"><path fill="#8c52ff" d="M 39.367188 39.851562 L 47.367188 39.851562 C 47.363281 40.027344 47.34375 40.199219 47.34375 40.371094 L 47.34375 50.085938 C 47.34375 56.859375 52.851562 62.371094 59.628906 62.371094 L 96.191406 62.371094 C 100.042969 62.371094 103.484375 60.582031 105.738281 57.796875 L 114.941406 57.796875 C 111.902344 65.164062 104.644531 70.363281 96.191406 70.363281 L 59.621094 70.363281 C 48.4375 70.363281 39.335938 61.265625 39.335938 50.082031 L 39.335938 40.371094 C 39.335938 40.195312 39.363281 40.023438 39.367188 39.851562 Z M 39.367188 39.851562 " fill-opacity="1" fill-rule="nonzero"/></g><g clip-path="url(#331863060d)"><path fill="#8c52ff" d="M 91.589844 73.25 L 91.589844 86.148438 L 89.222656 88.21875 L 79.078125 81.789062 L 79.078125 77.601562 L 89.222656 71.171875 Z M 91.589844 73.25 " fill-opacity="1" fill-rule="nonzero"/></g><g clip-path="url(#63b15f1ccc)"><path fill="#8c52ff" d="M 76.730469 77.601562 L 76.730469 81.789062 L 66.582031 88.21875 L 64.214844 86.148438 L 64.214844 73.25 L 66.582031 71.171875 Z M 76.730469 77.601562 " fill-opacity="1" fill-rule="nonzero"/></g><path fill="#8c52ff" d="M 77.070312 77.648438 L 78.738281 77.648438 L 78.738281 81.742188 L 77.070312 81.742188 Z M 77.070312 77.648438 " fill-opacity="1" fill-rule="nonzero"/><g fill="#5e17eb" fill-opacity="1"><g transform="translate(46.330787, 103.10754)"><g><path d="M 10.265625 0 L 8.828125 0 L 7.78125 -3.125 L 2.921875 -3.125 L 1.859375 0 L 0.453125 0 L 4.421875 -11.40625 L 6.28125 -11.40625 Z M 5.25 -10.015625 L 3.296875 -4.25 L 7.390625 -4.25 L 5.4375 -10.015625 Z M 5.25 -10.015625 "/></g></g></g><g fill="#5e17eb" fill-opacity="1"><g transform="translate(57.045452, 103.10754)"><g><path d="M 3.921875 0.15625 C 3.378906 0.15625 2.878906 0.0859375 2.421875 -0.046875 C 1.960938 -0.191406 1.570312 -0.390625 1.25 -0.640625 C 0.9375 -0.890625 0.710938 -1.171875 0.578125 -1.484375 L 1.328125 -2.265625 L 1.5 -2.265625 C 1.78125 -1.835938 2.117188 -1.515625 2.515625 -1.296875 C 2.910156 -1.078125 3.378906 -0.96875 3.921875 -0.96875 C 4.554688 -0.96875 5.035156 -1.09375 5.359375 -1.34375 C 5.691406 -1.59375 5.859375 -1.9375 5.859375 -2.375 C 5.859375 -2.71875 5.757812 -3 5.5625 -3.21875 C 5.363281 -3.4375 5.039062 -3.601562 4.59375 -3.71875 L 3.140625 -4.0625 C 2.367188 -4.25 1.800781 -4.546875 1.4375 -4.953125 C 1.082031 -5.359375 0.90625 -5.863281 0.90625 -6.46875 C 0.90625 -6.9375 1.023438 -7.34375 1.265625 -7.6875 C 1.503906 -8.03125 1.847656 -8.296875 2.296875 -8.484375 C 2.753906 -8.671875 3.289062 -8.765625 3.90625 -8.765625 C 4.695312 -8.765625 5.316406 -8.648438 5.765625 -8.421875 C 6.222656 -8.203125 6.582031 -7.898438 6.84375 -7.515625 L 6.125 -6.8125 L 5.96875 -6.8125 C 5.6875 -7.125 5.382812 -7.347656 5.0625 -7.484375 C 4.738281 -7.628906 4.351562 -7.703125 3.90625 -7.703125 C 3.34375 -7.703125 2.910156 -7.597656 2.609375 -7.390625 C 2.304688 -7.191406 2.15625 -6.898438 2.15625 -6.515625 C 2.15625 -6.171875 2.257812 -5.890625 2.46875 -5.671875 C 2.6875 -5.460938 3.0625 -5.289062 3.59375 -5.15625 L 5.015625 -4.8125 C 5.765625 -4.632812 6.304688 -4.34375 6.640625 -3.9375 C 6.972656 -3.53125 7.140625 -3.015625 7.140625 -2.390625 C 7.140625 -1.890625 7.019531 -1.445312 6.78125 -1.0625 C 6.539062 -0.675781 6.175781 -0.375 5.6875 -0.15625 C 5.207031 0.0507812 4.617188 0.15625 3.921875 0.15625 Z M 3.921875 0.15625 "/></g></g></g><g fill="#5e17eb" fill-opacity="1"><g transform="translate(64.99957, 103.10754)"><g><path d="M 1.5 0 L 1.5 -12.046875 L 2.765625 -12.046875 L 2.765625 -5.015625 L 2.984375 -5.015625 L 6.171875 -8.59375 L 7.515625 -8.59375 L 7.515625 -8.421875 L 4.09375 -4.5625 L 7.84375 -0.1875 L 7.84375 0 L 6.421875 0 L 2.984375 -3.984375 L 2.765625 -3.984375 L 2.765625 0 Z M 1.5 0 "/></g></g></g><g fill="#5e17eb" fill-opacity="1"><g transform="translate(73.000477, 103.10754)"><g><path d="M 5.40625 -11.40625 C 6.5625 -11.40625 7.550781 -11.195312 8.375 -10.78125 C 9.207031 -10.363281 9.847656 -9.734375 10.296875 -8.890625 C 10.753906 -8.046875 10.984375 -6.984375 10.984375 -5.703125 C 10.984375 -4.421875 10.753906 -3.351562 10.296875 -2.5 C 9.847656 -1.65625 9.207031 -1.023438 8.375 -0.609375 C 7.550781 -0.203125 6.5625 0 5.40625 0 L 1.71875 0 L 1.71875 -11.40625 Z M 5.28125 -1.140625 C 6.226562 -1.140625 7.015625 -1.285156 7.640625 -1.578125 C 8.265625 -1.878906 8.738281 -2.363281 9.0625 -3.03125 C 9.382812 -3.695312 9.546875 -4.585938 9.546875 -5.703125 C 9.546875 -6.816406 9.382812 -7.707031 9.0625 -8.375 C 8.738281 -9.039062 8.265625 -9.519531 7.640625 -9.8125 C 7.015625 -10.113281 6.226562 -10.265625 5.28125 -10.265625 L 3.0625 -10.265625 L 3.0625 -1.140625 Z M 5.28125 -1.140625 "/></g></g></g><g fill="#5e17eb" fill-opacity="1"><g transform="translate(85.11881, 103.10754)"><g><path d="M 3.546875 0.15625 C 2.703125 0.15625 2.039062 -0.0625 1.5625 -0.5 C 1.082031 -0.9375 0.84375 -1.566406 0.84375 -2.390625 C 0.84375 -2.898438 0.945312 -3.328125 1.15625 -3.671875 C 1.375 -4.023438 1.703125 -4.3125 2.140625 -4.53125 C 2.585938 -4.757812 3.164062 -4.929688 3.875 -5.046875 C 4.5 -5.148438 4.972656 -5.265625 5.296875 -5.390625 C 5.617188 -5.523438 5.835938 -5.671875 5.953125 -5.828125 C 6.066406 -5.992188 6.125 -6.203125 6.125 -6.453125 C 6.125 -6.835938 5.988281 -7.132812 5.71875 -7.34375 C 5.445312 -7.550781 5.015625 -7.65625 4.421875 -7.65625 C 3.867188 -7.65625 3.394531 -7.546875 3 -7.328125 C 2.601562 -7.117188 2.238281 -6.800781 1.90625 -6.375 L 1.75 -6.375 L 1.125 -7.25 C 1.488281 -7.71875 1.953125 -8.085938 2.515625 -8.359375 C 3.078125 -8.628906 3.710938 -8.765625 4.421875 -8.765625 C 5.441406 -8.765625 6.191406 -8.539062 6.671875 -8.09375 C 7.148438 -7.65625 7.390625 -7.039062 7.390625 -6.25 L 7.390625 -1.6875 C 7.390625 -1.207031 7.59375 -0.96875 8 -0.96875 C 8.132812 -0.96875 8.265625 -0.992188 8.390625 -1.046875 L 8.5 -1.015625 L 8.640625 -0.125 C 8.546875 -0.0625 8.421875 -0.015625 8.265625 0.015625 C 8.117188 0.046875 7.96875 0.0625 7.8125 0.0625 C 7.332031 0.0625 6.972656 -0.0390625 6.734375 -0.25 C 6.492188 -0.457031 6.335938 -0.765625 6.265625 -1.171875 L 6.109375 -1.1875 C 5.859375 -0.726562 5.523438 -0.390625 5.109375 -0.171875 C 4.691406 0.046875 4.171875 0.15625 3.546875 0.15625 Z M 3.828125 -0.84375 C 4.304688 -0.84375 4.71875 -0.953125 5.0625 -1.171875 C 5.414062 -1.398438 5.6875 -1.710938 5.875 -2.109375 C 6.0625 -2.515625 6.15625 -2.976562 6.15625 -3.5 L 6.15625 -4.59375 L 6.015625 -4.625 C 5.816406 -4.488281 5.578125 -4.375 5.296875 -4.28125 C 5.023438 -4.1875 4.644531 -4.101562 4.15625 -4.03125 C 3.65625 -3.96875 3.257812 -3.863281 2.96875 -3.71875 C 2.675781 -3.582031 2.46875 -3.40625 2.34375 -3.1875 C 2.21875 -2.976562 2.15625 -2.710938 2.15625 -2.390625 C 2.15625 -1.890625 2.300781 -1.503906 2.59375 -1.234375 C 2.894531 -0.972656 3.304688 -0.84375 3.828125 -0.84375 Z M 3.828125 -0.84375 "/></g></g></g><g fill="#5e17eb" fill-opacity="1"><g transform="translate(94.01651, 103.10754)"><g><path d="M 5.8125 -1.359375 L 6.21875 -0.453125 C 6.019531 -0.242188 5.753906 -0.09375 5.421875 0 C 5.085938 0.101562 4.726562 0.15625 4.34375 0.15625 C 2.707031 0.15625 1.890625 -0.671875 1.890625 -2.328125 L 1.890625 -7.5625 L 0.390625 -7.5625 L 0.390625 -8.609375 L 1.890625 -8.609375 L 1.890625 -10.421875 L 3.15625 -10.640625 L 3.15625 -8.609375 L 5.921875 -8.609375 L 5.921875 -7.5625 L 3.15625 -7.5625 L 3.15625 -2.453125 C 3.15625 -1.460938 3.582031 -0.96875 4.4375 -0.96875 C 4.90625 -0.96875 5.3125 -1.097656 5.65625 -1.359375 Z M 5.8125 -1.359375 "/></g></g></g><g fill="#5e17eb" fill-opacity="1"><g transform="translate(100.566961, 103.10754)"><g><path d="M 3.546875 0.15625 C 2.703125 0.15625 2.039062 -0.0625 1.5625 -0.5 C 1.082031 -0.9375 0.84375 -1.566406 0.84375 -2.390625 C 0.84375 -2.898438 0.945312 -3.328125 1.15625 -3.671875 C 1.375 -4.023438 1.703125 -4.3125 2.140625 -4.53125 C 2.585938 -4.757812 3.164062 -4.929688 3.875 -5.046875 C 4.5 -5.148438 4.972656 -5.265625 5.296875 -5.390625 C 5.617188 -5.523438 5.835938 -5.671875 5.953125 -5.828125 C 6.066406 -5.992188 6.125 -6.203125 6.125 -6.453125 C 6.125 -6.835938 5.988281 -7.132812 5.71875 -7.34375 C 5.445312 -7.550781 5.015625 -7.65625 4.421875 -7.65625 C 3.867188 -7.65625 3.394531 -7.546875 3 -7.328125 C 2.601562 -7.117188 2.238281 -6.800781 1.90625 -6.375 L 1.75 -6.375 L 1.125 -7.25 C 1.488281 -7.71875 1.953125 -8.085938 2.515625 -8.359375 C 3.078125 -8.628906 3.710938 -8.765625 4.421875 -8.765625 C 5.441406 -8.765625 6.191406 -8.539062 6.671875 -8.09375 C 7.148438 -7.65625 7.390625 -7.039062 7.390625 -6.25 L 7.390625 -1.6875 C 7.390625 -1.207031 7.59375 -0.96875 8 -0.96875 C 8.132812 -0.96875 8.265625 -0.992188 8.390625 -1.046875 L 8.5 -1.015625 L 8.640625 -0.125 C 8.546875 -0.0625 8.421875 -0.015625 8.265625 0.015625 C 8.117188 0.046875 7.96875 0.0625 7.8125 0.0625 C 7.332031 0.0625 6.972656 -0.0390625 6.734375 -0.25 C 6.492188 -0.457031 6.335938 -0.765625 6.265625 -1.171875 L 6.109375 -1.1875 C 5.859375 -0.726562 5.523438 -0.390625 5.109375 -0.171875 C 4.691406 0.046875 4.171875 0.15625 3.546875 0.15625 Z M 3.828125 -0.84375 C 4.304688 -0.84375 4.71875 -0.953125 5.0625 -1.171875 C 5.414062 -1.398438 5.6875 -1.710938 5.875 -2.109375 C 6.0625 -2.515625 6.15625 -2.976562 6.15625 -3.5 L 6.15625 -4.59375 L 6.015625 -4.625 C 5.816406 -4.488281 5.578125 -4.375 5.296875 -4.28125 C 5.023438 -4.1875 4.644531 -4.101562 4.15625 -4.03125 C 3.65625 -3.96875 3.257812 -3.863281 2.96875 -3.71875 C 2.675781 -3.582031 2.46875 -3.40625 2.34375 -3.1875 C 2.21875 -2.976562 2.15625 -2.710938 2.15625 -2.390625 C 2.15625 -1.890625 2.300781 -1.503906 2.59375 -1.234375 C 2.894531 -0.972656 3.304688 -0.84375 3.828125 -0.84375 Z M 3.828125 -0.84375 "/></g></g></g></svg>